# xmcd
#
# Track frame offsets:
#	150
#	11853
#	23998
#	38618
#	51650
#	62443
#	75370
#	88598
#	99408
#	117163
#	132253
#	142918
#	155998
#	167720
#	184115
#	197548
#	209838
#	220423
#	235185
#	243693
#	254793
#	265673
#	277373
#	290080
#	309823
#	325058
#	341725
#
# Disc length: 4749 seconds
#
# Revision: 0
# Processed by: cddbd v1.5.1PL0 Copyright (c) Steve Scherf et al.
# Submitted via: audiograbber 1.83.01
#
DISCID=9d128b1b
DTITLE=Classic Country - Classic Country 1975-1979
DYEAR=1900
DGENRE=Country
TTITLE0=Freddy Fender - Before Next Teedrop Falls  
TTITLE1=Dolly Parton - Jolene
TTITLE2=Olivia Newton John - If You Love Me Let Me Know  
TTITLE3=Conway Twitty - Happy Birthday Darlin'  
TTITLE4=George Jones and Tammy Winette - Near You  
TTITLE5=Eddie Rabbitt - Every Which Way But Loose  
TTITLE6=Crystal Gayle - Talking In Your Sleep  
TTITLE7=T. G. Shepard - Happy Together  
TTITLE8=Linda Ronstadt - Blue Bayou  
TTITLE9=Waylon Jennings - Luckenback, Texas  
TTITLE10=Willie Nelson - Blue Eyes Crying In The Rain  
TTITLE11=Dr. Hook - Sharing The Night Together  
TTITLE12=Crystal Gayle - It Make My Brown Eyes Blue  
TTITLE13=Charlie Daniels Band - Devil Went Down To Georgia  
TTITLE14=Dolly Parton - Here You Come Again  
TTITLE15=Freddy Fender - Wasted Days and Wasted Nights  
TTITLE16=George Jones and Johnny Paycheck - Mabelline  
TTITLE17=Lynn Anderson - I Love How You Love Me  
TTITLE18=Jerry Lee Lewis - Save The Last Dance For Me  
TTITLE19=Ray Stevens - You Are So Beautiful  
TTITLE20=Kendalls - Heaven's Just A Sin Away  
TTITLE21=Marty Robbins - Among My Souvenirs  
TTITLE22=Don Williams - You're My Best Friend  
TTITLE23=Willie Nelson - Georgia On My Mind  
TTITLE24=B. J. Thomas - He Won't You Play  
TTITLE25=Mary MacGregor - Torn Between Two Lovers  
TTITLE26=Bellamy Brothers - Let Your Love Flow  
EXTD=Compiled.
EXTT0=
EXTT1=
EXTT2=
EXTT3=
EXTT4=
EXTT5=
EXTT6=
EXTT7=
EXTT8=
EXTT9=
EXTT10=
EXTT11=
EXTT12=
EXTT13=
EXTT14=
EXTT15=
EXTT16=
EXTT17=
EXTT18=
EXTT19=
EXTT20=
EXTT21=
EXTT22=
EXTT23=
EXTT24=
EXTT25=
EXTT26=
PLAYORDER=
